<?xml version="1.0" encoding="UTF-8" standalone="no"?>
<!-- Created with Inkscape (http://www.inkscape.org/) -->

<svg
   width="210mm"
   height="297mm"
   viewBox="0 0 210 297"
   version="1.1"
   id="svg5"
   xml:space="preserve"
   inkscape:export-filename="TermadeEIM_Gray.png"
   inkscape:export-xdpi="93.475426"
   inkscape:export-ydpi="93.475426"
   inkscape:version="1.2.2 (732a01da63, 2022-12-09)"
   sodipodi:docname="drawing.svg"
   xmlns:inkscape="http://www.inkscape.org/namespaces/inkscape"
   xmlns:sodipodi="http://sodipodi.sourceforge.net/DTD/sodipodi-0.dtd"
   xmlns="http://www.w3.org/2000/svg"
   xmlns:svg="http://www.w3.org/2000/svg"><sodipodi:namedview
     id="namedview7"
     pagecolor="#ffffff"
     bordercolor="#111111"
     borderopacity="1"
     inkscape:showpageshadow="0"
     inkscape:pageopacity="0"
     inkscape:pagecheckerboard="1"
     inkscape:deskcolor="#d1d1d1"
     inkscape:document-units="mm"
     showgrid="false"
     inkscape:zoom="0.52724989"
     inkscape:cx="227.59607"
     inkscape:cy="316.73786"
     inkscape:window-width="1920"
     inkscape:window-height="1017"
     inkscape:window-x="-8"
     inkscape:window-y="-8"
     inkscape:window-maximized="1"
     inkscape:current-layer="layer1" /><defs
     id="defs2"><style
       id="style207">.cls-1{fill:#fff;}.cls-1,.cls-2{stroke-width:0px;}.cls-2{fill:#1464a0;}</style><style
       id="style10085">.cls-1{letter-spacing:-.01em;}.cls-2{fill:#262626;}.cls-2,.cls-3{stroke:#fff;}.cls-2,.cls-3,.cls-4{stroke-miterlimit:10;}.cls-3{fill:#175690;}.cls-5,.cls-6,.cls-7{fill:#fff;}.cls-5,.cls-8{font-size:20.71px;}.cls-5,.cls-8,.cls-9,.cls-7{font-family:Orbitron-Bold, Orbitron;font-weight:700;}.cls-6,.cls-10,.cls-11{stroke-width:0px;}.cls-10{fill:#36aedb;}.cls-8,.cls-9,.cls-11{fill:#1464a0;}.cls-9,.cls-7{font-size:6.85px;}.cls-4{fill:#f2f2f2;stroke:#000;}.cls-12{letter-spacing:-.02em;}</style><style
       id="style387">.cls-1{fill:#1464a0;}</style></defs><g
     inkscape:label="Layer 1"
     inkscape:groupmode="layer"
     id="layer1"><path
       d="m 105.48962,9.1872456 c 0.14614,-4.91e-4 0.14614,-4.91e-4 0.29512,-9.83e-4 0.51795,-0.0015 1.03586,-0.003 1.5538,-0.0045 0.41638,-4.93e-4 0.83272,-0.003 1.24908,-0.006 2.28463,-0.01609 4.55093,0.02131 6.82834,0.21604 0.0944,0.0074 0.18849,0.01609 0.28559,0.02444 9.49698,0.8300784 18.82388,3.3372554 27.46207,7.3615334 0.14703,0.06808 0.29418,0.136161 0.44575,0.206358 1.95456,0.908604 3.85392,1.885258 5.71446,2.973583 0.36231,0.211826 0.7259,0.421371 1.08966,0.630723 4.10701,2.378644 7.97933,5.177034 11.57999,8.267635 0.21494,0.183699 0.43122,0.36573 0.64784,0.547463 1.76775,1.488854 3.42381,3.09151 5.06049,4.722187 0.11439,0.113669 0.2287,0.227467 0.34651,0.34465 0.57333,0.57477 1.12794,1.157747 1.65697,1.773587 0.27054,0.314305 0.55213,0.617943 0.83351,0.922533 0.52682,0.57833 1.03043,1.169755 1.5214,1.778728 0.23396,0.290036 0.46952,0.57818 0.7072,0.865148 1.09718,1.329066 2.12974,2.698756 3.13555,4.098019 0.0811,0.112626 0.16213,0.225143 0.24566,0.34112 0.24539,0.341982 0.48929,0.684994 0.73261,1.028452 0.0734,0.102791 0.14689,0.205554 0.22262,0.311444 0.53984,0.768732 0.95089,1.524772 1.40783,2.362494 -22.68407,0.04305 -45.36812,0.08611 -68.73959,0.1305 -0.55958,1.033041 -1.11914,2.066097 -1.69566,3.130452 -0.872,1.545406 -0.872,1.545406 -1.24678,2.204672 -0.49886,0.880924 -0.98787,1.767197 -1.47607,2.65405 -0.0439,0.07971 -0.0877,0.159357 -0.13289,0.241457 -0.044,0.07986 -0.0879,0.159624 -0.13318,0.241858 -0.0887,0.161249 -0.17756,0.322497 -0.26635,0.483747 -0.044,0.07984 -0.0879,0.159669 -0.13318,0.241917 -0.69876,1.268613 -1.40366,2.533843 -2.10766,3.799551 -0.24563,0.441811 -0.49098,0.883755 -0.73626,1.325759 -0.81193,1.463037 -1.62512,2.925375 -2.441575,4.385896 -0.0719,0.128861 -0.14376,0.257634 -0.21786,0.390355 -0.13468,0.240666 -0.27103,0.480454 -0.40938,0.719049 -0.22553,0.394735 -0.22553,0.394735 -0.40409,0.80672 -0.51605,1.067872 -0.51605,1.067872 -1.07554,1.302118 -0.433978,0.05706 -0.844304,0.06257 -1.281962,0.05214 -0.246149,0.003 -0.246149,0.003 -0.497257,0.0074 -0.454158,0.006 -0.907766,0.003 -1.361913,-0.003 -0.490215,-0.0045 -0.98035,9.82e-4 -1.470566,0.0045 -0.959785,0.006 -1.919365,0.003 -2.879162,-0.0015 -0.780129,-0.0045 -1.560211,-0.006 -2.340351,-0.0045 -0.111184,1.64e-4 -0.22215,3.28e-4 -0.336585,4.92e-4 -0.225665,3.42e-4 -0.451307,4.91e-4 -0.676961,9.83e-4 -2.115625,0.003 -4.231155,-0.003 -6.346756,-0.01341 -1.81466,-0.0074 -3.629185,-0.0089 -5.44386,-0.0045 -2.107884,0.006 -4.215708,0.0074 -6.323592,0.0015 -0.224861,-4.92e-4 -0.449721,-9.98e-4 -0.674566,-0.0015 -0.165941,-4.17e-4 -0.165941,-4.17e-4 -0.33525,-9.82e-4 -0.778982,-0.0015 -1.557919,-4.48e-4 -2.336901,0.0015 -0.949675,0.003 -1.899202,9.83e-4 -2.848847,-0.0074 -0.484432,-0.0045 -0.96864,-0.006 -1.453072,-0.0015 -0.525578,0.0045 -1.050545,-0.0015 -1.576078,-0.0089 -0.152654,0.003 -0.305306,0.006 -0.462593,0.0089 -0.627192,-0.01579 -1.022702,-0.03396 -1.502471,-0.46085 -0.265783,-0.328903 -0.497034,-0.662068 -0.722937,-1.019172 -1.555044,-2.07867 -4.192544,-3.295096 -6.700614,-3.728118 -3.3261,-0.3831 -6.243281,0.550143 -8.889496,2.54095 -2.302442,1.914665 -3.530474,4.767445 -3.828496,7.700791 -0.138396,3.043362 0.87942,5.957595 2.89293,8.243785 1.834487,1.99015 4.546353,3.350158 7.264523,3.519853 3.340504,0.124989 6.079245,-0.878526 8.626809,-3.049411 0.648571,-0.622038 1.289334,-1.363418 1.668487,-2.186184 0.205628,-0.413863 0.358937,-0.721701 0.810892,-0.876648 0.360769,-0.03621 0.708726,-0.03814 1.071253,-0.0295 0.137502,-9.83e-4 0.274885,-0.0015 0.4165,-0.003 0.46137,-0.0015 0.922353,0.0045 1.383694,0.01042 0.330349,2.98e-4 0.660712,1.34e-4 0.991075,-4.63e-4 0.711631,-2.23e-4 1.423142,0.003 2.134759,0.0089 1.028839,0.0089 2.057634,0.01192 3.086505,0.01192 1.669276,0.003 3.338493,0.0089 5.007739,0.01906 1.621441,0.0089 3.242868,0.01698 4.864339,0.02145 0.09996,2.68e-4 0.199907,4.92e-4 0.302893,9.84e-4 0.501474,0.0015 1.002933,0.003 1.504408,0.0045 4.159693,0.01042 8.319345,0.02935 12.478996,0.05259 -0.143909,0.289813 -0.288093,0.579537 -0.432357,0.869201 -0.04042,0.08119 -0.08061,0.162425 -0.122153,0.246103 -0.354058,0.710142 -0.737109,1.400886 -1.133019,2.088518 -0.661994,1.160473 -1.312767,2.326666 -1.956544,3.497298 -0.726953,1.321221 -1.459299,2.639233 -2.197267,3.954348 -0.884041,1.575841 -1.760285,3.155999 -2.636992,4.735928 -0.313022,0.564065 -0.626076,1.128089 -0.939232,1.692076 -0.125138,0.22541 -0.250216,0.45088 -0.375294,0.676327 -0.07657,0.13781 -0.153025,0.27562 -0.231862,0.417607 -0.06674,0.12037 -0.133629,0.2407 -0.202366,0.36468 -0.240547,0.429587 -0.485057,0.856743 -0.729522,1.284103 -1.922948,0.0306 -3.845852,0.0535 -5.768979,0.0677 -0.893021,0.008 -1.785879,0.0159 -2.67881,0.0308 -0.861781,0.0149 -1.723472,0.0221 -2.585388,0.0253 -0.328739,0.003 -0.657479,0.007 -0.986144,0.0134 -0.460759,0.009 -0.920864,0.0103 -1.381698,0.0103 -0.135715,0.005 -0.27152,0.009 -0.411405,0.0149 -0.581876,-0.009 -0.919226,-0.0221 -1.338839,-0.4484 -0.231966,-0.33069 -0.43241,-0.667106 -0.631454,-1.018233 -1.448215,-1.865961 -3.805137,-3.020765 -6.11774,-3.328645 -2.589619,-0.216299 -5.080797,0.37628 -7.134215,2.037531 -0.331661,0.29114 -0.650314,0.590987 -0.965527,0.899804 -0.08194,0.0772 -0.163766,0.15434 -0.24813,0.23387 -1.578374,1.621313 -2.342413,4.172083 -2.365683,6.380143 0.132885,3.02141 1.307852,5.21885 3.448391,7.24783 1.470547,1.27513 3.487735,2.06081 5.426326,2.18172 0.103683,0.008 0.20749,0.0134 0.314363,0.0208 2.340104,0.0792 4.480167,-0.73311 6.337865,-2.10785 0.08551,-0.0614 0.171155,-0.12274 0.259332,-0.18597 0.865297,-0.67433 1.485786,-1.64911 2.088503,-2.55317 0.323257,-0.0385 0.614008,-0.0511 0.937549,-0.0471 0.09773,-3.5e-4 0.195408,-5.1e-4 0.296055,-0.001 0.329096,-4.9e-4 0.658105,0.001 0.987172,0.003 0.235214,1.1e-4 0.470413,5e-5 0.705627,-1.7e-4 0.640019,-1.1e-4 1.280024,10e-4 1.920043,0.005 0.668295,0.003 1.336604,0.003 2.004914,0.003 1.266198,9.7e-4 2.532384,0.005 3.798582,0.009 1.441243,0.005 2.882472,0.006 4.323714,0.009 2.96536,0.005 5.930721,0.0103 8.896059,0.0197 0.03939,-0.12171 0.07866,-0.24357 0.119337,-0.36905 0.140771,-0.41114 0.313306,-0.75838 0.526261,-1.13656 0.07729,-0.13825 0.154672,-0.27644 0.234379,-0.41882 0.08359,-0.14779 0.167119,-0.29561 0.253226,-0.44786 0.08805,-0.15691 0.176016,-0.31384 0.26392,-0.47081 0.182532,-0.32579 0.365372,-0.65142 0.54843,-0.97692 0.419646,-0.74679 0.834655,-1.49615 1.250157,-2.24525 0.163019,-0.29348 0.326073,-0.58696 0.489139,-0.88044 0.08072,-0.14525 0.161416,-0.29054 0.244569,-0.44021 0.244558,-0.44022 0.489128,-0.88045 0.733697,-1.32067 0.08073,-0.14524 0.16144,-0.29059 0.244593,-0.44029 0.162939,-0.29327 0.325867,-0.58653 0.488818,-0.87979 0.409398,-0.736843 0.818682,-1.47376 1.227703,-2.210847 0.86421,-1.556981 1.73104,-3.112442 2.6019,-4.665726 0.80288,-1.432711 1.599975,-2.868605 2.396875,-4.304625 0.40808,-0.735243 0.81652,-1.470269 1.22493,-2.205318 0.16306,-0.293478 0.32609,-0.586955 0.48914,-0.880448 2.28263,-4.108715 4.56525,-8.217446 6.84788,-12.326161 0.0807,-0.145249 0.16143,-0.290588 0.24461,-0.440276 0.16291,-0.293284 0.32586,-0.586553 0.4888,-0.879808 0.40941,-0.736852 0.81868,-1.473778 1.22771,-2.210854 0.86353,-1.555758 1.72947,-3.110102 2.59989,-4.662018 0.40198,-0.717112 0.80275,-1.434881 1.2016,-2.153752 0.0431,-0.07761 0.0861,-0.15523 0.1305,-0.235199 0.20652,-0.372241 0.41287,-0.744584 0.61899,-1.117047 0.57073,-1.029585 1.15376,-2.050544 1.73796,-3.072875 21.86623,0 43.73247,0 66.2613,0 1.84294,4.453753 1.84294,4.453753 2.36415,5.951115 0.0314,0.08968 0.0629,0.179423 0.0951,0.271861 2.7462,7.874376 4.45829,16.356666 4.4803,24.712179 3.8e-4,0.09744 9.8e-4,0.194783 9.8e-4,0.295135 0.001,0.517937 0.003,1.035851 0.005,1.553787 5e-4,0.416383 0.003,0.832721 0.006,1.249081 0.016,2.284633 -0.0213,4.550932 -0.21604,6.82834 -0.007,0.0944 -0.016,0.18847 -0.0244,0.28557 -0.83009,9.496976 -3.33728,18.823876 -7.36156,27.462056 -0.0681,0.14704 -0.13616,0.29419 -0.20634,0.44576 -0.90862,1.95456 -1.88526,3.85393 -2.9736,5.71445 -0.21182,0.36231 -0.42137,0.7259 -0.6307,1.08967 -2.28846,3.95127 -4.96116,7.71122 -7.92997,11.18162 -0.38291,0.44768 -0.75523,0.90228 -1.12359,1.36209 -0.44928,0.55277 -0.92515,1.05839 -1.43989,1.55046 -0.2463,0.24917 -0.47228,0.50094 -0.69957,0.76682 -0.59094,0.68113 -1.22868,1.31499 -1.86722,1.95096 -0.20765,0.20696 -0.4146,0.41461 -0.6215,0.62234 -0.64184,0.64227 -1.28858,1.27251 -1.97918,1.86288 -0.3364,0.28842 -0.65813,0.5913 -0.98238,0.89334 -0.72314,0.66717 -1.47346,1.2929 -2.24186,1.90762 -0.14599,0.11873 -0.29185,0.23769 -0.43767,0.35666 -1.29991,1.05619 -2.63869,2.05524 -3.99714,3.03466 -0.1058,0.0764 -0.21165,0.15281 -0.32067,0.23151 -1.63093,1.17245 -3.30348,2.25937 -5.02719,3.29025 -0.10134,0.0606 -0.20253,0.12127 -0.30686,0.18369 -0.71803,0.42743 -1.44255,0.84248 -2.17142,1.25111 -0.12246,0.0687 -0.24481,0.13736 -0.37093,0.2082 -9.34924,5.21482 -19.69774,8.49014 -37.60775,10.25314 -0.0974,3.8e-4 -0.19479,9.9e-4 -0.29515,9.9e-4 -0.51791,0.001 -1.03585,0.003 -1.55378,0.005 -0.41639,4.9e-4 -0.83272,0.003 -1.24908,0.006 -2.28464,0.016 -4.55094,-0.0213 -6.82836,-0.21603 -0.0943,-0.007 -0.18847,-0.016 -0.28556,-0.0244 -9.496973,-0.83009 -18.823885,-3.33727 -27.462063,-7.36156 -0.147036,-0.0681 -0.294207,-0.13615 -0.445757,-0.20633 -1.954561,-0.90863 -3.853942,-1.88527 -5.71447,-2.97361 -0.362319,-0.21182 -0.725888,-0.42136 -1.089652,-0.6307 -3.951279,-2.28846 -7.711248,-4.96116 -11.181642,-7.92996 -0.447681,-0.38292 -0.902273,-0.75524 -1.362094,-1.1236 -0.552766,-0.44928 -1.058382,-0.92515 -1.550456,-1.43989 -0.249158,-0.2463 -0.500922,-0.47227 -0.76681,-0.69956 -0.681122,-0.59095 -1.315003,-1.22869 -1.950971,-1.86722 -0.206954,-0.20766 -0.414607,-0.41461 -0.622336,-0.62151 -0.642269,-0.64184 -1.272515,-1.28857 -1.862883,-1.97918 -0.288426,-0.33639 -0.591304,-0.65813 -0.893333,-0.98238 -0.667177,-0.72314 -1.29291,-1.47346 -1.907619,-2.24185 -0.118732,-0.146 -0.237687,-0.29185 -0.356657,-0.43767 -2.068406,-2.54568 -3.997582,-5.22396 -5.757509,-7.99173 -0.10145,-0.1589 -0.10145,-0.1589 -0.204897,-0.321 -0.06123,-0.0976 -0.122308,-0.19505 -0.185397,-0.29552 -0.05393,-0.0858 -0.107852,-0.17171 -0.163498,-0.26016 -0.114711,-0.21574 -0.114711,-0.21574 -0.114711,-0.4766 22.641019,-0.0431 45.282037,-0.0861 68.609145,-0.1305 1.3058,-2.28346 1.3058,-2.28346 2.58426,-4.58153 0.17856,-0.32479 0.3573,-0.6495 0.53601,-0.9742 0.0666,-0.12112 0.0666,-0.12112 0.13468,-0.24472 0.45895,-0.83411 0.92108,-1.66645 1.38373,-2.49851 0.0802,-0.1442 0.16034,-0.2884 0.24295,-0.43697 0.16154,-0.29054 0.32312,-0.58107 0.48469,-0.87158 0.40717,-0.73217 0.81393,-1.46454 1.22076,-2.1969 0.16303,-0.29349 0.32607,-0.58696 0.48912,-0.88045 0.0807,-0.14525 0.16141,-0.29054 0.24457,-0.44021 0.24457,-0.44022 0.48914,-0.88044 0.73369,-1.32067 0.0807,-0.14539 0.16161,-0.29089 0.24487,-0.44076 0.16205,-0.29169 0.32413,-0.58336 0.48626,-0.87503 0.37824,-0.68056 0.75623,-1.36128 1.13317,-2.04259 0.17583,-0.31782 0.35186,-0.63553 0.52787,-0.95324 0.12246,-0.22119 0.24467,-0.44247 0.36686,-0.66378 0.0757,-0.13646 0.15133,-0.27306 0.22928,-0.41371 0.0654,-0.11829 0.13079,-0.2366 0.19824,-0.35849 0.0783,-0.13707 0.15668,-0.27421 0.2374,-0.41547 0.0455,-0.10557 0.0909,-0.21122 0.13764,-0.32002 0.43846,-0.90898 0.43846,-0.90898 0.97926,-1.10641 0.43017,-0.0476 0.84421,-0.053 1.277,-0.0453 0.16391,-0.003 0.32781,-0.005 0.49665,-0.006 0.45414,-0.006 0.90791,-0.005 1.36205,-2.4e-4 0.49005,0.003 0.98002,-0.003 1.47004,-0.008 0.95973,-0.008 1.91935,-0.006 2.87907,-0.003 0.78021,0.003 1.56038,0.001 2.34057,5e-5 0.11096,-2.6e-4 0.22211,-4.9e-4 0.33652,-9.8e-4 0.22561,-5e-4 0.45123,-9.9e-4 0.67683,-0.001 2.11587,-0.005 4.23167,-10e-4 6.34752,0.005 1.81463,0.005 3.62912,10e-4 5.44374,-0.006 2.10769,-0.009 4.21531,-0.0134 6.32302,-0.0103 0.2249,3.6e-4 0.4498,4.9e-4 0.67469,9.9e-4 0.16597,2.5e-4 0.16597,2.5e-4 0.33531,5e-4 0.77887,9.8e-4 1.55767,-0.001 2.33651,-0.006 0.94983,-0.006 1.89947,-0.005 2.84928,0.003 0.48449,0.003 0.96864,0.005 1.45312,-9.9e-4 3.06219,-0.0336 3.06219,-0.0336 3.71578,0.5469 0.31659,0.36923 0.50211,0.77749 0.69604,1.22247 1.52089,1.89485 4.13029,3.16894 6.5088,3.49367 3.37732,0.34638 6.26158,-0.47984 8.9361,-2.56482 2.04266,-1.71433 3.40749,-4.28341 3.72914,-6.92889 0.25804,-3.16709 -0.42933,-6.07755 -2.49968,-8.55527 -2.1491,-2.455577 -4.84804,-3.710858 -8.08548,-4.003728 -2.64529,-0.0835 -5.54904,0.847937 -7.50464,2.637735 -0.10283,0.10065 -0.20547,0.20144 -0.31131,0.3052 -0.2512,0.224697 -0.2512,0.224697 -0.51207,0.224697 -0.0357,0.0781 -0.0717,0.15603 -0.10843,0.23642 -0.14586,0.273236 -0.29096,0.453646 -0.50289,0.676626 -0.28253,0.3 -0.42951,0.51413 -0.56217,0.90884 -0.19347,0.52177 -0.36536,0.80496 -0.78295,1.17814 -1.00514,0.31608 -2.14159,0.19701 -3.18087,0.17769 -0.33039,-4.5e-4 -0.66079,-2e-4 -0.99119,4.9e-4 -0.71099,3.5e-4 -1.42168,-0.005 -2.13261,-0.0134 -1.0278,-0.0134 -2.05551,-0.0168 -3.08338,-0.0188 -1.66771,-0.003 -3.33532,-0.0134 -5.00295,-0.0286 -1.61966,-0.0149 -3.23928,-0.0254 -4.859,-0.0321 -0.0999,-4.1e-4 -0.19977,-9.9e-4 -0.30269,-0.001 -0.50114,-10e-4 -1.00227,-0.005 -1.50342,-0.006 -4.15537,-0.0162 -8.3106,-0.0437 -12.46586,-0.0788 0.15995,-0.49242 0.32455,-0.93383 0.5839,-1.38231 0.0649,-0.11324 0.12976,-0.22658 0.19661,-0.3433 0.0707,-0.12201 0.14123,-0.24388 0.21406,-0.36951 0.1544,-0.26977 0.3086,-0.539659 0.46264,-0.809626 0.0815,-0.14271 0.16293,-0.285357 0.24686,-0.432377 0.43319,-0.764397 0.8563,-1.534321 1.27964,-2.304198 0.17744,-0.322367 0.35494,-0.644727 0.53245,-0.967064 0.044,-0.07981 0.0879,-0.159676 0.13318,-0.241947 0.69853,-1.268237 1.40327,-2.53305 2.10706,-3.798368 0.24743,-0.445192 0.49447,-0.89059 0.74141,-1.336069 0.91563,-1.651345 1.83695,-3.299194 2.7682,-4.94179 0.25051,-0.441929 0.49991,-0.884455 0.74796,-1.327784 0.055,-0.09818 0.10993,-0.196496 0.16668,-0.297724 0.1011,-0.180928 0.2022,-0.361945 0.30302,-0.543068 0.32809,-0.586255 0.32809,-0.586255 0.4729,-0.731057 0.1903,-0.01594 0.38136,-0.0228 0.57229,-0.02622 0.12366,-0.003 0.24719,-0.0045 0.37455,-0.0074 0.20508,-0.003 0.20508,-0.003 0.41433,-0.006 0.14316,-0.003 0.28633,-0.0045 0.43382,-0.0074 1.32365,-0.02205 2.64741,-0.03486 3.97119,-0.04454 0.9781,-0.0074 1.95587,-0.01966 2.93383,-0.03859 0.77114,-0.0149 1.54221,-0.02026 2.31349,-0.02324 0.32744,-0.003 0.65487,-0.0074 0.98222,-0.01579 2.70608,-0.06361 2.70608,-0.06361 3.32098,0.506851 0.29753,0.397194 0.50601,0.785195 0.72689,1.227854 1.63972,1.80742 4.04347,2.876781 6.46115,3.029061 2.85691,0.06794 5.33796,-0.92152 7.4058,-2.866024 1.97684,-2.076347 2.66037,-4.615732 2.6082,-7.399165 -0.10489,-2.55114 -1.38307,-4.766299 -3.21147,-6.49223 -2.26662,-1.914278 -4.90472,-2.358785 -7.78538,-2.184799 -2.49152,0.290661 -4.52852,1.81603 -6.0938,3.68736 -0.19008,0.244822 -0.19008,0.244822 -0.37787,0.625241 -0.31099,0.383085 -0.31099,0.383085 -0.74797,0.479381 -0.1773,0.003 -0.35469,0.003 -0.53195,-0.0015 -0.14689,9.84e-4 -0.14689,9.84e-4 -0.29673,0.0015 -0.32836,0.0015 -0.6564,-0.003 -0.98474,-0.0074 -0.23524,-2.23e-4 -0.47049,-1.04e-4 -0.70574,3.42e-4 -0.63896,2.23e-4 -1.27781,-0.0045 -1.91677,-0.01042 -0.66759,-0.0045 -1.33519,-0.006 -2.0028,-0.006 -1.26437,-0.003 -2.52868,-0.0089 -3.79303,-0.01668 -1.43933,-0.0089 -2.87868,-0.01341 -4.31805,-0.01698 -2.96101,-0.0074 -5.92196,-0.02189 -8.88295,-0.03933 -0.059,0.182672 -0.059,0.182672 -0.11932,0.369038 -0.14078,0.411136 -0.31331,0.758393 -0.52625,1.136576 -0.0773,0.138248 -0.1547,0.27642 -0.23438,0.418824 -0.0836,0.147782 -0.16713,0.295578 -0.25323,0.447858 -0.0881,0.156885 -0.17602,0.313828 -0.26393,0.470787 -0.18252,0.325804 -0.36536,0.65143 -0.54842,0.976937 -0.41965,0.746788 -0.83465,1.496139 -1.25016,2.245237 -0.16286,0.29315 -0.32573,0.586286 -0.48863,0.87942 -0.32793,0.590277 -0.65569,1.180644 -0.98335,1.771071 -0.86421,1.556995 -1.73104,3.11247 -2.60191,4.665741 -0.80288,1.432702 -1.59997,2.868607 -2.39687,4.30465 -0.40809,0.73522 -0.81653,1.470246 -1.22494,2.205294 -0.16305,0.293474 -0.32609,0.58696 -0.48914,0.880446 -2.28263,4.108714 -4.56524,8.217431 -6.84787,12.326141 -0.0807,0.14525 -0.16146,0.29063 -0.24464,0.44035 -0.1628,0.29306 -0.32564,0.58612 -0.4885,0.87917 -0.41119,0.74001 -0.82213,1.48015 -1.23258,2.22059 -0.76077,1.37189 -1.52378,2.74227 -2.29789,4.10668 -0.63564,1.1207 -1.26168,2.24646 -1.88317,3.37504 -0.0435,0.0791 -0.0871,0.15828 -0.13214,0.23984 -0.0881,0.16002 -0.17624,0.32004 -0.26435,0.48007 -0.0437,0.0794 -0.0875,0.15874 -0.13244,0.24051 -0.0438,0.0794 -0.0876,0.15896 -0.1326,0.24085 -0.47891,0.86952 -0.960005,1.73784 -1.441785,2.6058 -0.0764,0.13794 -0.15295,0.276 -0.23175,0.41819 -0.56678,1.02047 -1.1455,2.03279 -1.72477,3.04651 -21.780147,0 -43.560293,0 -66.000436,0 -0.752345,-1.50468 -0.752345,-1.50468 -1.040952,-2.30758 -0.04975,-0.13587 -0.04975,-0.13587 -0.100558,-0.27455 -0.106958,-0.29382 -0.2126,-0.5881 -0.31779,-0.88257 -0.0368,-0.1026 -0.07359,-0.20526 -0.111584,-0.31101 -2.936192,-8.21037 -4.824012,-16.97805 -4.847058,-25.724627 -3.72e-4,-0.09744 -7.44e-4,-0.194794 -0.0011,-0.295146 -0.0015,-0.517925 -0.003,-1.035862 -0.0045,-1.553799 -5.37e-4,-0.41636 -0.003,-0.832697 -0.006,-1.249058 -0.01609,-2.284645 0.02131,-4.550948 0.216042,-6.828363 0.01192,-0.141377 0.01192,-0.141377 0.02443,-0.285568 0.829974,-9.497261 3.337182,-18.824157 7.361445,-27.462333 0.06808,-0.147037 0.136161,-0.294208 0.206357,-0.445773 0.908603,-1.954561 1.885258,-3.853927 2.973584,-5.714456 0.211824,-0.362317 0.42137,-0.725888 0.630723,-1.08965 0.968594,-1.672465 2.008101,-3.287917 3.102429,-4.880636 0.06704,-0.09803 0.134077,-0.195974 0.203231,-0.296919 1.356313,-1.974672 2.826442,-3.864802 4.362014,-5.703133 0.05453,-0.06554 0.109054,-0.131245 0.165272,-0.198834 0.808672,-0.971814 1.641537,-1.915128 2.502201,-2.841206 0.152088,-0.166195 0.302415,-0.333998 0.451866,-0.502577 0.737642,-0.831033 1.505883,-1.62454 2.292879,-2.408348 0.205345,-0.204645 0.40999,-0.40999 0.614575,-0.615394 0.637412,-0.637845 1.280099,-1.263175 1.965868,-1.849565 0.336545,-0.28868 0.658492,-0.591707 0.982941,-0.893914 0.723131,-0.667163 1.473287,-1.293163 2.24187,-1.907619 0.150523,-0.12186 0.301001,-0.243824 0.451419,-0.365834 2.960966,-2.394984 6.059403,-4.595992 9.331246,-6.54726 0.102046,-0.06093 0.204168,-0.12186 0.309343,-0.184637 C 74.689849,15.352825 84.851184,11.69523 105.4898,9.1917026 Z"
       fill="#1464a0"
       id="path456"
       style="fill:#666666;stroke-width:0.130435" /><g
       id="g35"
       transform="matrix(0.10432891,0,0,0.10432891,8.9053483,107.06347)"><path
         d="m 111.5,359.48 c 5.76,-25.19 12.25,-50.61 19.46,-76.25 7.21,-25.64 14.23,-51.06 21.06,-76.25 2.88,-10.47 5.42,-19.99 7.62,-28.57 2.2,-8.57 4.06,-16.35 5.58,-23.33 1.52,-6.98 2.65,-13.32 3.41,-19.01 0.76,-5.69 1.14,-10.96 1.14,-15.82 v -3.07 c 0,-1.14 -0.08,-2.54 -0.23,-4.21 -1.52,0 -4.89,0.84 -10.13,2.5 -5.24,1.67 -11.38,3.87 -18.44,6.6 -7.05,2.73 -14.49,5.8 -22.31,9.22 -7.82,3.41 -15.06,6.87 -21.74,10.36 -5.31,2.73 -9.75,5.01 -13.32,6.83 -3.57,1.82 -6.64,3.23 -9.22,4.21 -2.58,0.99 -4.93,1.67 -7.06,2.05 -2.13,0.38 -4.32,0.57 -6.6,0.57 -4.71,0 -8.76,-1.82 -12.18,-5.46 -3.41,-3.64 -5.12,-8.34 -5.12,-14.11 0,-3.34 0.34,-6.26 1.02,-8.76 0.68,-2.5 1.74,-4.74 3.19,-6.71 1.44,-1.97 3.38,-3.83 5.81,-5.58 2.43,-1.74 5.38,-3.53 8.88,-5.35 38.39,-20.03 77.24,-34.71 116.54,-44.04 39.3,-9.33 78.76,-14 118.36,-14 3.19,0 6.98,0.08 11.38,0.23 4.4,0.15 8.91,0.42 13.54,0.8 4.63,0.38 9.14,0.91 13.54,1.59 4.4,0.68 8.27,1.48 11.61,2.39 3.49,1.06 6.52,3.26 9.1,6.6 2.58,3.34 3.87,6.91 3.87,10.7 0,3.04 -0.27,6 -0.8,8.88 -0.53,2.89 -1.48,5.39 -2.84,7.51 -1.37,2.13 -3.15,3.83 -5.35,5.12 -2.2,1.29 -4.89,1.94 -8.08,1.94 -5.46,-0.6 -11.72,-1.37 -18.78,-2.28 -7.05,-0.91 -14.15,-1.37 -21.28,-1.37 -14.27,0 -28.49,0.34 -42.68,1.02 -14.19,0.68 -28.72,2.7 -43.59,6.03 -0.76,0.31 -1.25,1.1 -1.48,2.39 -0.23,1.29 -0.42,2.92 -0.57,4.89 -0.46,8.19 -1.14,15.4 -2.05,21.62 -0.91,6.22 -2.16,12.45 -3.76,18.66 -1.59,6.22 -3.53,12.94 -5.81,20.15 -2.28,7.21 -4.93,15.86 -7.97,25.95 -3.04,10.09 -6.57,22.16 -10.59,36.19 -4.02,14.04 -8.46,31 -13.32,50.87 l -10.93,44.16 c -2.58,10.17 -4.59,19.31 -6.03,27.43 -1.45,8.12 -2.7,16.13 -3.76,24.01 -0.61,2.58 -2.92,5.01 -6.94,7.28 -4.02,2.28 -8.76,3.41 -14.23,3.41 -3.19,0 -6.07,-0.87 -8.65,-2.62 -2.58,-1.74 -4.71,-3.98 -6.37,-6.72 -1.67,-2.73 -2.81,-5.73 -3.41,-8.99 -0.61,-3.26 -0.46,-6.49 0.46,-9.67 z"
         id="path9" /><path
         d="m 305.2,308.27 c 0,-6.52 1.74,-12.06 5.24,-16.62 3.49,-4.55 8.12,-7.59 13.88,-9.1 1.67,-3.34 4.25,-7.85 7.74,-13.54 3.49,-5.69 7.81,-11.87 12.97,-18.55 5.16,-6.67 11.04,-13.39 17.64,-20.15 6.6,-6.75 13.88,-12.89 21.85,-18.44 7.97,-5.54 16.54,-10.05 25.72,-13.54 9.18,-3.49 18.93,-5.24 29.25,-5.24 8.8,0 16.46,1.06 22.99,3.19 6.52,2.13 11.91,5.09 16.16,8.88 4.25,3.8 7.43,8.31 9.56,13.54 2.12,5.23 3.19,10.89 3.19,16.96 0,5.16 -0.68,10.09 -2.05,14.8 -2.13,8.5 -6.07,15.93 -11.84,22.31 -5.77,6.37 -12.56,11.95 -20.37,16.73 -7.82,4.78 -16.31,8.76 -25.49,11.95 -9.18,3.19 -18.36,5.84 -27.54,7.97 -9.18,2.13 -18.02,3.76 -26.52,4.89 -8.5,1.14 -15.86,2.01 -22.08,2.62 -1.37,2.73 -2.54,6.18 -3.53,10.36 -0.99,4.18 -1.48,8.23 -1.48,12.18 0,8.8 3.49,15.63 10.47,20.49 6.98,4.86 16.62,7.28 28.91,7.28 7.13,0 13.96,-0.8 20.49,-2.39 6.52,-1.59 12.71,-3.64 18.55,-6.15 5.84,-2.5 11.34,-5.23 16.5,-8.19 5.16,-2.96 9.86,-5.88 14.11,-8.76 5.46,-3.64 10.66,-6.72 15.59,-9.22 4.93,-2.51 9.29,-3.76 13.09,-3.76 3.8,0 6.22,0.95 7.28,2.85 1.06,1.9 1.59,3.91 1.59,6.03 0,1.22 -0.04,2.39 -0.11,3.53 -0.08,1.14 -0.19,2.09 -0.34,2.84 -0.76,3.95 -2.28,7.89 -4.55,11.84 -2.28,3.95 -5.16,7.36 -8.65,10.24 -15.78,12.45 -31.98,21.32 -48.6,26.63 -16.61,5.31 -34.33,7.97 -53.15,7.97 -3.64,0 -7.93,-0.23 -12.86,-0.68 -4.93,-0.46 -10.05,-1.37 -15.36,-2.73 -5.31,-1.37 -10.55,-3.34 -15.71,-5.92 -5.16,-2.58 -9.75,-5.99 -13.77,-10.24 -4.02,-4.25 -7.28,-9.48 -9.79,-15.71 -2.5,-6.22 -3.76,-13.73 -3.76,-22.53 0,-7.13 0.98,-15.1 2.96,-23.9 -1.97,-0.3 -3.83,-1.33 -5.58,-3.07 -1.75,-1.74 -2.62,-4.28 -2.62,-7.62 z m 142.49,-63.05 c 0.3,-0.76 0.46,-1.44 0.46,-2.05 v -2.05 c 0,-4.1 -1.52,-7.17 -4.55,-9.22 -3.04,-2.05 -6.68,-3.07 -10.93,-3.07 -6.68,0 -13.24,1.75 -19.69,5.24 -6.45,3.49 -12.52,7.85 -18.21,13.09 -5.69,5.24 -10.74,10.85 -15.14,16.84 -4.4,6 -7.82,11.42 -10.24,16.28 10.93,-0.91 20.94,-2.39 30.05,-4.44 9.1,-2.05 17.03,-4.63 23.79,-7.74 6.75,-3.11 12.21,-6.6 16.39,-10.47 4.17,-3.87 6.86,-8 8.08,-12.4 z"
         id="path11" /><path
         d="m 543.29,372.69 c 1.97,-10.62 4.25,-22.31 6.83,-35.05 2.58,-12.75 5.24,-25.64 7.97,-38.7 2.73,-13.05 5.38,-25.87 7.97,-38.47 2.58,-12.59 4.78,-24.13 6.6,-34.6 -0.15,-1.52 -0.23,-2.85 -0.23,-3.98 v -3.76 c 0,-4.7 0.3,-9.41 0.91,-14.11 0.6,-4.7 1.44,-9.03 2.5,-12.97 1.67,-5.76 3.53,-9.67 5.58,-11.72 2.05,-2.05 5.35,-3.07 9.9,-3.07 4.55,0 7.93,0.88 10.58,2.62 2.65,1.75 4.74,4.06 6.26,6.94 1.52,2.89 2.5,6.18 2.96,9.9 0.46,3.72 0.68,7.55 0.68,11.5 0,2.13 -0.08,4.48 -0.23,7.06 -0.15,2.58 -0.23,4.63 -0.23,6.15 4.25,-4.4 8.76,-8.91 13.54,-13.54 4.78,-4.63 9.86,-8.8 15.25,-12.52 5.38,-3.72 11.08,-6.79 17.07,-9.22 5.99,-2.43 12.25,-3.64 18.78,-3.64 2.58,0 5.12,0.23 7.63,0.68 2.5,0.46 5.04,1.06 7.62,1.82 3.03,0.76 6.18,1.79 9.45,3.07 3.26,1.29 6.41,3.07 9.45,5.35 5.01,3.8 9.22,8.54 12.63,14.23 3.41,5.69 5.12,11.5 5.12,17.41 0,2.28 -0.46,4.75 -1.37,7.4 -0.91,2.66 -2.16,5.09 -3.76,7.28 -1.59,2.2 -3.45,4.02 -5.58,5.46 -2.13,1.44 -4.48,2.16 -7.06,2.16 -2.58,0 -5.73,-0.64 -9.45,-1.94 -3.72,-1.29 -6.79,-2.99 -9.22,-5.12 -1.06,-0.91 -2.16,-2.2 -3.3,-3.87 -1.14,-1.67 -2.2,-3.34 -3.19,-5.01 -0.99,-1.67 -1.9,-3.22 -2.73,-4.67 -0.84,-1.44 -1.48,-2.39 -1.94,-2.84 -0.76,-0.15 -1.59,-0.26 -2.5,-0.34 -0.91,-0.07 -1.75,-0.11 -2.5,-0.11 -7.74,0 -15.1,1.97 -22.08,5.92 -6.98,3.95 -13.51,8.76 -19.58,14.45 -6.07,5.69 -11.65,11.76 -16.73,18.21 -5.09,6.45 -9.52,12.26 -13.32,17.41 -3.04,12.29 -6.41,25.38 -10.13,39.26 -3.72,13.89 -7.4,28.42 -11.04,43.59 V 367 c 0,4.55 -0.15,9.18 -0.46,13.88 -0.31,4.71 -1.22,8.88 -2.73,12.52 -1.67,2.28 -4.06,4.21 -7.17,5.8 -3.11,1.59 -6.72,2.39 -10.81,2.39 -6.37,0 -11.15,-2.09 -14.34,-6.26 -3.19,-4.17 -4.78,-9.07 -4.78,-14.68 0,-2.58 0.38,-5.24 1.14,-7.97 z"
         id="path13" /><path
         d="m 726.3,376.1 c 2.88,-11.53 6.9,-24.36 12.06,-38.47 5.16,-14.11 11.11,-28.83 17.87,-44.16 6.75,-15.32 14.19,-30.88 22.31,-46.66 8.12,-15.78 16.54,-31.14 25.27,-46.09 8.72,-14.94 17.67,-29.06 26.86,-42.34 9.18,-13.28 18.24,-25.15 27.2,-35.62 2.58,-2.88 5.8,-6.45 9.67,-10.7 3.87,-4.25 8.19,-8.65 12.97,-13.2 4.78,-4.55 9.79,-9.07 15.02,-13.54 5.24,-4.47 10.51,-8.5 15.82,-12.07 5.31,-3.56 10.47,-6.45 15.48,-8.65 5.01,-2.2 9.63,-3.3 13.88,-3.3 5.76,0 11.04,0.99 15.82,2.96 4.78,1.97 8.88,4.78 12.29,8.42 3.42,3.64 6.07,8.01 7.97,13.09 1.89,5.09 2.84,10.66 2.84,16.73 0,2.58 -0.19,5.16 -0.57,7.74 -0.38,2.58 -0.88,5.24 -1.48,7.97 l -25.27,127.01 c 2.28,-3.49 5.46,-8.23 9.56,-14.23 4.1,-5.99 8.72,-12.67 13.88,-20.03 5.16,-7.36 10.54,-15.02 16.16,-22.99 5.61,-7.97 11.11,-15.67 16.5,-23.1 5.38,-7.43 10.36,-14.23 14.91,-20.37 4.55,-6.15 8.27,-11.11 11.15,-14.91 l 4.1,-5.24 c 2.73,-3.49 6.07,-7.59 10.02,-12.29 3.94,-4.7 8.31,-9.63 13.09,-14.8 4.78,-5.16 9.82,-10.24 15.14,-15.25 5.31,-5.01 10.7,-9.48 16.16,-13.43 5.46,-3.94 10.85,-7.17 16.16,-9.67 5.31,-2.51 10.39,-3.76 15.25,-3.76 3.64,0 6.68,0.84 9.1,2.5 2.43,1.67 4.4,3.91 5.92,6.72 1.52,2.81 2.58,6.11 3.19,9.9 0.6,3.8 0.91,7.74 0.91,11.84 0,6.37 -0.53,12.82 -1.59,19.35 -1.06,6.53 -2.28,12.45 -3.64,17.75 -0.76,4.25 -1.79,10.32 -3.07,18.21 -1.29,7.89 -2.81,16.96 -4.55,27.2 -1.75,10.24 -3.61,21.32 -5.58,33.23 -1.97,11.91 -3.98,24.01 -6.03,36.3 -2.05,12.29 -4.1,24.43 -6.14,36.42 -2.05,11.99 -3.95,23.18 -5.69,33.57 -1.75,10.4 -3.34,19.69 -4.78,27.88 -1.45,8.19 -2.62,14.57 -3.53,19.12 -0.46,2.13 -1.18,5.01 -2.16,8.65 -0.99,3.64 -2.43,7.21 -4.32,10.7 -1.9,3.49 -4.4,6.53 -7.51,9.1 -3.11,2.58 -6.94,3.87 -11.49,3.87 -2.43,0 -4.75,-0.8 -6.94,-2.39 -2.2,-1.59 -4.18,-3.6 -5.92,-6.03 -1.75,-2.43 -3.11,-5.04 -4.1,-7.85 -0.99,-2.81 -1.56,-5.35 -1.71,-7.63 l 47.35,-224.89 c 0.46,-2.12 0.83,-4.02 1.14,-5.69 0.3,-1.67 0.46,-3.26 0.46,-4.78 0,-1.67 -0.19,-3.19 -0.57,-4.55 -0.38,-1.37 -0.72,-2.65 -1.02,-3.87 -0.46,-1.37 -0.91,-2.58 -1.37,-3.64 -6.83,5.16 -14.15,11.72 -21.96,19.69 -7.82,7.97 -15.71,16.84 -23.67,26.63 -7.97,9.79 -15.93,20.18 -23.9,31.19 -7.97,11 -15.52,22.04 -22.65,33.12 -5.62,8.65 -11.65,17.75 -18.1,27.31 -6.45,9.56 -12.94,19.16 -19.46,28.79 -6.53,9.64 -12.86,19.27 -19.01,28.91 -6.14,9.64 -11.72,18.86 -16.73,27.66 -2.43,4.25 -4.93,9.71 -7.51,16.39 -2.58,6.68 -5.43,13.2 -8.54,19.58 -3.11,6.37 -6.45,11.84 -10.02,16.39 -3.57,4.55 -7.62,6.83 -12.18,6.83 -3.49,0 -6.41,-0.53 -8.76,-1.59 -2.35,-1.06 -4.21,-2.46 -5.58,-4.21 -1.37,-1.74 -2.35,-3.79 -2.96,-6.14 -0.61,-2.35 -0.91,-4.89 -0.91,-7.63 0,-3.49 0.34,-6.98 1.02,-10.47 0.68,-3.49 1.4,-6.83 2.16,-10.02 3.19,-13.35 6.52,-26.63 10.02,-39.83 3.49,-13.2 7.09,-26.71 10.81,-40.52 3.72,-13.81 7.55,-28.11 11.5,-42.91 3.94,-14.79 7.97,-30.54 12.06,-47.23 1.06,-4.7 2.28,-9.98 3.64,-15.82 1.37,-5.84 2.65,-11.76 3.87,-17.75 1.21,-5.99 2.2,-11.8 2.96,-17.41 0.76,-5.61 1.14,-10.62 1.14,-15.02 0,-3.94 -0.31,-7.09 -0.91,-9.45 -0.61,-2.35 -1.75,-3.53 -3.41,-3.53 -5.62,0 -11.53,2.09 -17.75,6.26 -6.22,4.18 -12.52,9.67 -18.89,16.5 -6.37,6.83 -12.67,14.65 -18.89,23.44 -6.22,8.8 -12.14,17.87 -17.75,27.2 -5.62,9.33 -10.85,18.55 -15.71,27.66 -4.86,9.1 -9.03,17.3 -12.52,24.58 -0.76,1.52 -1.86,3.61 -3.3,6.26 -1.45,2.66 -3.34,6.37 -5.69,11.15 -2.35,4.78 -5.23,10.89 -8.65,18.32 -3.41,7.44 -7.44,16.84 -12.06,28.22 -4.63,11.38 -9.98,24.96 -16.05,40.74 -6.07,15.78 -12.9,34.3 -20.49,55.54 -1.37,3.64 -3.76,6.6 -7.17,8.88 -3.42,2.28 -6.94,3.41 -10.59,3.41 -7.89,0 -13.7,-2.13 -17.41,-6.37 -3.72,-4.25 -5.58,-9.48 -5.58,-15.71 0,-2.73 0.38,-5.76 1.14,-9.1 z"
         id="path15" /><path
         d="m 1279.42,386.34 c 0,-4.4 0.53,-9.67 1.59,-15.82 1.06,-6.14 1.59,-13.77 1.59,-22.88 -5.01,3.64 -10.55,7.97 -16.62,12.97 -6.07,5.01 -12.37,9.79 -18.89,14.34 -6.53,4.55 -13.01,8.39 -19.46,11.49 -6.45,3.11 -12.48,4.67 -18.1,4.67 -4.55,0 -8.88,-0.68 -12.97,-2.05 -4.1,-1.37 -7.59,-3.19 -10.47,-5.46 -8.04,-6.37 -13.85,-12.75 -17.41,-19.12 -3.57,-6.37 -5.35,-13.81 -5.35,-22.31 0,-3.79 0.34,-7.74 1.02,-11.84 0.68,-4.1 1.71,-8.8 3.07,-14.11 5.76,-23.97 15.67,-46.17 29.71,-66.58 14.03,-20.41 31.45,-37.82 52.24,-52.24 8.04,-5.61 16.08,-9.22 24.13,-10.81 8.04,-1.59 16.01,-2.39 23.9,-2.39 3.49,0 7.4,0.23 11.72,0.68 4.32,0.46 8.23,0.91 11.72,1.37 3.49,-0.76 6.33,-1.29 8.54,-1.59 2.2,-0.3 4.51,-0.46 6.94,-0.46 4.55,0 8.34,0.61 11.38,1.82 3.03,1.22 5.46,2.84 7.28,4.89 1.82,2.05 3.15,4.4 3.98,7.05 0.83,2.66 1.25,5.43 1.25,8.31 0,3.95 -0.61,7.7 -1.82,11.27 -1.22,3.57 -2.43,7.17 -3.64,10.81 l -30.05,119.96 c -0.61,6.53 -1.14,12.52 -1.59,17.98 -0.45,5.46 -1.37,10.55 -2.73,15.25 -0.46,1.37 -1.02,3.07 -1.71,5.12 -0.68,2.05 -1.79,4.02 -3.3,5.92 -1.52,1.9 -3.41,3.53 -5.69,4.89 -2.28,1.36 -5.24,2.05 -8.88,2.05 -4.71,0 -8.46,-0.31 -11.27,-0.91 -2.81,-0.61 -4.97,-1.48 -6.49,-2.62 -1.52,-1.14 -2.5,-2.5 -2.96,-4.1 -0.46,-1.59 -0.68,-3.45 -0.68,-5.58 z m -75.57,-68.74 c -0.61,2.13 -1.25,5.16 -1.94,9.1 -0.68,3.95 -1.02,7.89 -1.02,11.84 0,3.95 0.6,7.78 1.82,11.04 1.21,3.27 3.87,4.89 7.97,4.89 6.37,0 12.33,-1.4 17.87,-4.21 5.54,-2.81 10.73,-6.18 15.59,-10.13 6.52,-5.31 13.16,-11.27 19.92,-17.87 6.75,-6.6 13.12,-13.54 19.12,-20.83 5.99,-7.28 11.3,-14.76 15.93,-22.42 4.63,-7.66 8,-15.29 10.13,-22.88 1.21,-4.4 2.24,-9.48 3.07,-15.25 0.83,-5.76 1.25,-10.93 1.25,-15.48 0,-1.97 -0.46,-3.9 -1.37,-5.8 -0.91,-1.9 -2.66,-2.85 -5.24,-2.85 -7.44,0 -14.91,1.44 -22.42,4.32 -7.51,2.89 -14.76,6.75 -21.74,11.61 -6.98,4.86 -13.62,10.59 -19.92,17.18 -6.3,6.6 -12.03,13.66 -17.18,21.17 -5.16,7.51 -9.6,15.25 -13.32,23.22 -3.72,7.97 -6.56,15.74 -8.54,23.33 z"
         id="path17" /><path
         d="m 1392.32,318.06 c 1.97,-8.19 4.59,-16.39 7.85,-24.58 3.26,-8.19 7.32,-16.31 12.18,-24.36 4.85,-8.04 10.62,-15.89 17.3,-23.56 6.67,-7.66 14.49,-14.98 23.44,-21.97 6.07,-4.85 12.48,-9.45 19.23,-13.77 6.75,-4.32 13.62,-8.08 20.6,-11.27 6.98,-3.19 14,-5.73 21.05,-7.62 7.06,-1.9 14,-2.85 20.83,-2.85 5.01,0 9.45,0.42 13.32,1.25 3.87,0.84 7.55,2.01 11.04,3.53 1.52,-5.31 5.58,-19.58 12.18,-42.79 6.6,-23.22 14.68,-55.54 24.24,-96.97 1.67,-4.1 4.02,-7.51 7.06,-10.24 3.03,-2.73 6.67,-4.1 10.93,-4.1 3.03,0 5.99,0.27 8.88,0.8 2.88,0.53 5.46,1.59 7.74,3.19 2.28,1.59 4.1,3.76 5.46,6.49 1.36,2.73 2.05,6.3 2.05,10.7 l -45.75,182.78 c -1.37,5.16 -2.66,12.1 -3.87,20.83 -1.22,8.73 -2.36,17.95 -3.42,27.66 -1.06,9.71 -1.9,19.31 -2.51,28.79 -0.61,9.49 -0.91,17.64 -0.91,24.47 0,8.5 -0.99,16.92 -2.96,25.27 -0.91,3.64 -1.86,6.71 -2.85,9.22 -0.99,2.5 -2.32,4.55 -3.98,6.14 -1.67,1.59 -3.76,2.73 -6.26,3.42 -2.51,0.68 -5.66,1.02 -9.45,1.02 -4.4,0 -7.82,-0.46 -10.24,-1.37 -2.43,-0.91 -4.25,-2.16 -5.46,-3.76 -1.22,-1.59 -1.94,-3.42 -2.16,-5.46 -0.23,-2.05 -0.38,-4.25 -0.46,-6.6 -0.08,-2.35 -0.23,-4.78 -0.46,-7.28 -0.23,-2.5 -0.88,-4.89 -1.94,-7.17 -1.82,1.22 -4.32,2.81 -7.51,4.78 -3.19,1.97 -6.41,3.98 -9.67,6.03 -3.27,2.05 -6.34,3.95 -9.22,5.69 -2.89,1.75 -5.01,3 -6.37,3.76 -3.49,1.97 -7.44,4.06 -11.84,6.26 -4.4,2.2 -9.14,4.25 -14.23,6.14 -5.09,1.9 -10.4,3.45 -15.93,4.67 -5.54,1.21 -11.12,1.82 -16.73,1.82 -6.83,0 -13.47,-1.14 -19.92,-3.41 -6.45,-2.28 -12.22,-5.76 -17.3,-10.47 -5.09,-4.7 -9.15,-10.66 -12.18,-17.87 -3.04,-7.21 -4.55,-15.67 -4.55,-25.38 0,-3.49 0.19,-6.94 0.57,-10.36 0.38,-3.41 1.1,-7.24 2.16,-11.49 z m 39.38,-1.82 c -1.22,4.55 -1.82,8.96 -1.82,13.2 0,4.24 0.38,8.54 1.14,12.4 0.76,3.87 2.16,7.25 4.21,10.13 2.05,2.89 4.78,5.2 8.19,6.94 3.42,1.75 7.85,2.62 13.32,2.62 3.03,0 6.3,-0.53 9.79,-1.59 3.49,-1.06 6.94,-2.39 10.36,-3.98 3.41,-1.59 6.6,-3.26 9.56,-5.01 2.96,-1.74 5.5,-3.3 7.62,-4.67 5.76,-3.79 11.11,-7.51 16.05,-11.15 4.93,-3.64 9.37,-7.59 13.32,-11.84 3.94,-4.25 7.4,-8.99 10.36,-14.23 2.96,-5.23 5.35,-11.27 7.17,-18.1 1.52,-6.07 2.85,-11.61 3.98,-16.62 1.14,-5.01 2.16,-9.9 3.07,-14.68 0.91,-4.78 1.74,-9.67 2.5,-14.68 0.76,-5.01 1.52,-10.54 2.28,-16.62 -0.76,-0.91 -1.79,-1.78 -3.07,-2.62 -1.29,-0.83 -3.23,-1.25 -5.81,-1.25 -6.07,0 -12.75,1.02 -20.03,3.07 -7.28,2.05 -14.76,4.97 -22.42,8.76 -7.67,3.8 -15.18,8.42 -22.54,13.88 -7.36,5.46 -14.19,11.57 -20.49,18.32 -6.3,6.75 -11.8,14.15 -16.5,22.19 -4.71,8.04 -8.12,16.54 -10.24,25.49 z"
         id="path19" /><path
         d="m 1646.11,308.27 c 0,-6.52 1.74,-12.06 5.24,-16.62 3.49,-4.55 8.11,-7.59 13.88,-9.1 1.67,-3.34 4.25,-7.85 7.74,-13.54 3.49,-5.69 7.81,-11.87 12.98,-18.55 5.16,-6.67 11.04,-13.39 17.64,-20.15 6.6,-6.75 13.88,-12.89 21.85,-18.44 7.97,-5.54 16.54,-10.05 25.72,-13.54 9.18,-3.49 18.93,-5.24 29.25,-5.24 8.8,0 16.46,1.06 22.99,3.19 6.52,2.13 11.91,5.09 16.16,8.88 4.25,3.8 7.43,8.31 9.56,13.54 2.12,5.23 3.19,10.89 3.19,16.96 0,5.16 -0.68,10.09 -2.05,14.8 -2.13,8.5 -6.07,15.93 -11.84,22.31 -5.77,6.37 -12.56,11.95 -20.37,16.73 -7.82,4.78 -16.31,8.76 -25.49,11.95 -9.18,3.19 -18.36,5.84 -27.54,7.97 -9.18,2.13 -18.02,3.76 -26.52,4.89 -8.5,1.14 -15.86,2.01 -22.08,2.62 -1.36,2.73 -2.54,6.18 -3.53,10.36 -0.99,4.18 -1.48,8.23 -1.48,12.18 0,8.8 3.49,15.63 10.47,20.49 6.98,4.86 16.62,7.28 28.91,7.28 7.13,0 13.96,-0.8 20.49,-2.39 6.52,-1.59 12.71,-3.64 18.55,-6.15 5.84,-2.5 11.34,-5.23 16.5,-8.19 5.16,-2.96 9.86,-5.88 14.11,-8.76 5.46,-3.64 10.66,-6.72 15.59,-9.22 4.93,-2.51 9.29,-3.76 13.09,-3.76 3.8,0 6.22,0.95 7.28,2.85 1.06,1.9 1.59,3.91 1.59,6.03 0,1.22 -0.04,2.39 -0.11,3.53 -0.08,1.14 -0.19,2.09 -0.34,2.84 -0.76,3.95 -2.27,7.89 -4.55,11.84 -2.27,3.95 -5.16,7.36 -8.65,10.24 -15.79,12.45 -31.98,21.32 -48.6,26.63 -16.61,5.31 -34.34,7.97 -53.15,7.97 -3.64,0 -7.93,-0.23 -12.86,-0.68 -4.93,-0.46 -10.05,-1.37 -15.36,-2.73 -5.31,-1.37 -10.55,-3.34 -15.7,-5.92 -5.16,-2.58 -9.75,-5.99 -13.77,-10.24 -4.02,-4.25 -7.28,-9.48 -9.79,-15.71 -2.5,-6.22 -3.75,-13.73 -3.75,-22.53 0,-7.13 0.98,-15.1 2.96,-23.9 -1.97,-0.3 -3.83,-1.33 -5.58,-3.07 -1.75,-1.74 -2.62,-4.28 -2.62,-7.62 z m 142.5,-63.05 c 0.3,-0.76 0.46,-1.44 0.46,-2.05 v -2.05 c 0,-4.1 -1.52,-7.17 -4.55,-9.22 -3.04,-2.05 -6.68,-3.07 -10.93,-3.07 -6.68,0 -13.24,1.75 -19.69,5.24 -6.45,3.49 -12.52,7.85 -18.21,13.09 -5.69,5.24 -10.74,10.85 -15.13,16.84 -4.4,6 -7.82,11.42 -10.24,16.28 10.93,-0.91 20.94,-2.39 30.05,-4.44 9.1,-2.05 17.03,-4.63 23.79,-7.74 6.75,-3.11 12.21,-6.6 16.39,-10.47 4.17,-3.87 6.86,-8 8.08,-12.4 z"
         id="path21" /></g></g></svg>
